<svg id="svg" xmlns="http://www.w3.org/2000/svg" xmlns:xlink="http://www.w3.org/1999/xlink" width="500" height="352.11267605633805" viewBox="0, 0, 500,352.11267605633805"><g id="svgg"><path id="path0" d="M5.695 0.401 C 5.536 0.665,4.832 3.653,4.131 7.042 C -2.346 38.384,-1.340 73.916,6.784 100.723 C 24.416 158.903,77.240 197.959,131.749 193.117 C 135.945 192.745,139.838 192.302,140.400 192.133 C 141.348 191.848,141.340 192.018,140.290 194.468 C 137.948 199.932,137.639 204.417,139.186 210.515 C 139.809 212.972,139.791 213.015,137.009 216.091 C 116.000 239.308,111.116 276.610,125.280 305.669 C 149.722 355.810,215.791 367.926,256.198 329.677 C 276.895 310.086,286.467 279.398,280.238 252.604 L 279.442 249.176 282.285 246.065 C 285.427 242.627,287.477 237.990,287.982 233.175 L 288.300 230.142 291.193 232.428 C 323.541 257.998,372.534 261.506,414.613 241.263 C 451.933 223.310,482.388 185.138,497.883 136.895 C 500.846 127.668,500.777 127.598,494.572 133.592 C 464.516 162.621,423.004 179.355,374.707 181.911 C 336.875 183.913,307.021 194.455,287.849 212.582 L 283.342 216.843 280.683 214.357 C 275.063 209.103,266.175 206.944,258.921 209.071 C 255.981 209.932,255.913 209.923,254.581 208.499 C 239.624 192.506,206.483 183.545,182.645 189.047 L 179.669 189.734 176.907 187.303 C 170.561 181.717,162.433 179.917,153.756 182.176 C 152.349 182.542,152.220 182.340,150.629 177.282 C 145.813 161.971,134.446 144.783,119.934 130.869 C 109.863 121.211,105.978 118.326,81.866 102.598 C 47.118 79.930,18.564 42.469,7.941 5.611 C 6.343 0.067,6.158 -0.362,5.695 0.401 M15.845 51.061 C 15.845 51.527,11.926 55.164,11.423 55.164 C 11.273 55.164,11.150 52.330,11.150 48.865 L 11.150 42.566 13.498 46.583 C 14.789 48.792,15.845 50.807,15.845 51.061 M23.547 62.111 L 26.260 66.073 20.061 71.329 C 16.652 74.219,13.681 76.662,13.458 76.756 C 13.235 76.851,12.874 75.134,12.656 72.942 C 12.438 70.749,12.121 68.143,11.952 67.149 C 11.670 65.492,11.998 65.043,15.916 61.721 C 21.059 57.359,20.265 57.318,23.547 62.111 M34.266 75.949 L 37.573 79.715 27.850 87.980 C 22.503 92.525,17.922 96.244,17.669 96.244 C 17.302 96.244,14.965 87.569,14.965 86.207 C 14.965 85.951,30.315 72.461,30.885 72.215 C 30.926 72.198,32.448 73.878,34.266 75.949 M46.554 89.100 L 49.938 92.520 37.440 103.138 C 30.566 108.978,24.692 113.843,24.388 113.950 C 24.084 114.056,22.986 112.031,21.949 109.448 L 20.062 104.754 21.915 103.215 C 22.934 102.368,27.993 98.079,33.157 93.682 C 44.182 84.297,42.403 84.905,46.554 89.100 M48.500 117.107 L 33.157 130.193 31.984 128.786 C 31.338 128.012,30.091 126.092,29.213 124.520 L 27.616 121.660 41.796 109.628 L 55.975 97.596 59.909 100.809 L 63.842 104.022 48.500 117.107 M75.840 112.337 C 77.366 113.330,78.555 114.332,78.480 114.562 C 78.007 116.029,43.727 144.272,43.076 143.731 C 42.672 143.396,41.217 141.664,39.842 139.882 L 37.343 136.642 39.065 135.265 C 40.012 134.507,47.388 128.223,55.458 121.300 C 72.045 107.068,69.477 108.197,75.840 112.337 M94.385 124.681 C 85.448 132.403,56.588 156.690,56.348 156.690 C 56.161 156.690,54.493 155.159,52.641 153.287 L 49.274 149.885 67.624 134.297 L 85.974 118.710 90.277 121.612 C 92.643 123.208,94.492 124.589,94.385 124.681 M105.070 132.742 L 108.717 135.789 107.297 136.997 C 106.517 137.661,98.271 144.674,88.974 152.582 C 79.677 160.490,71.815 167.054,71.503 167.168 C 70.619 167.492,62.594 161.933,63.166 161.392 C 66.030 158.685,100.576 129.695,100.939 129.695 C 101.205 129.695,103.064 131.066,105.070 132.742 M117.904 145.002 C 120.534 147.989,120.914 148.693,120.236 149.317 C 119.790 149.727,113.087 155.421,105.340 161.971 C 97.594 168.520,90.703 174.375,90.027 174.983 C 88.494 176.363,77.918 172.394,79.374 170.986 C 81.446 168.980,114.101 141.432,114.406 141.432 C 114.602 141.432,116.176 143.038,117.904 145.002 M128.397 158.304 C 129.644 160.160,130.846 161.990,131.069 162.370 C 131.322 162.803,127.490 166.436,120.857 172.054 C 108.890 182.188,110.060 181.724,101.647 179.675 L 97.630 178.697 111.462 166.854 C 127.547 153.082,125.562 154.084,128.397 158.304 M471.526 169.131 C 469.992 171.810,468.679 174.075,468.607 174.163 C 468.536 174.251,467.934 173.016,467.270 171.418 L 466.063 168.513 469.974 166.225 C 474.891 163.349,474.865 163.300,471.526 169.131 M137.868 175.673 C 138.905 178.206,139.665 180.367,139.557 180.475 C 139.022 181.009,128.919 181.968,125.482 181.811 L 121.563 181.631 128.362 175.885 C 132.102 172.724,135.346 170.347,135.572 170.603 C 135.798 170.859,136.831 173.140,137.868 175.673 M463.024 182.702 C 463.029 183.239,456.454 192.566,456.230 192.339 C 455.995 192.098,450.152 176.406,450.286 176.372 C 450.355 176.355,452.390 175.389,454.808 174.225 L 459.206 172.109 461.113 177.163 C 462.162 179.944,463.022 182.436,463.024 182.702 M444.149 182.658 C 444.786 184.353,446.390 188.614,447.712 192.128 C 450.704 200.074,450.792 199.211,446.509 203.886 L 442.900 207.824 438.291 195.365 C 435.756 188.513,433.749 182.860,433.830 182.804 C 434.071 182.638,442.158 179.726,442.593 179.648 C 442.812 179.609,443.512 180.964,444.149 182.658 M431.268 198.803 C 433.972 206.143,436.298 212.443,436.436 212.804 C 436.772 213.686,429.049 219.788,428.439 219.124 C 427.761 218.384,416.625 188.227,416.920 187.931 C 417.182 187.669,424.783 185.584,425.763 185.505 C 426.086 185.479,428.563 191.463,431.268 198.803 M415.255 206.669 C 418.775 216.083,421.720 223.939,421.800 224.128 C 421.961 224.510,413.795 229.229,413.264 229.060 C 412.761 228.900,399.010 191.757,399.334 191.433 C 399.565 191.201,405.888 189.920,408.213 189.633 C 408.566 189.590,411.735 197.256,415.255 206.669 M398.552 212.735 L 405.995 232.688 404.142 233.485 C 403.123 233.924,401.050 234.772,399.535 235.371 L 396.782 236.458 395.527 233.106 C 386.899 210.045,380.869 193.742,380.869 193.476 C 380.869 193.032,384.606 192.646,388.190 192.721 L 391.110 192.782 398.552 212.735 M372.653 193.878 C 372.653 193.997,376.360 204.066,380.891 216.254 C 385.422 228.442,389.053 238.488,388.960 238.579 C 388.616 238.917,381.541 240.610,380.473 240.610 C 379.555 240.610,377.915 236.712,370.784 217.576 L 362.201 194.542 363.759 194.172 C 365.462 193.766,372.653 193.529,372.653 193.878 M362.855 218.683 C 367.618 231.477,371.424 242.035,371.313 242.146 C 371.202 242.257,368.883 242.512,366.160 242.712 L 361.209 243.078 352.822 220.350 C 348.209 207.850,344.569 197.489,344.733 197.325 C 345.096 196.962,351.364 195.566,353.008 195.483 C 354.047 195.430,355.285 198.347,362.855 218.683 M345.040 221.747 C 349.291 233.160,352.624 242.642,352.447 242.819 C 352.119 243.147,342.222 242.103,341.909 241.707 C 341.413 241.083,327.315 202.423,327.518 202.247 C 328.937 201.014,336.605 199.234,336.936 200.061 C 337.142 200.576,340.789 210.335,345.040 221.747 M326.434 222.532 C 329.902 231.941,332.645 239.734,332.529 239.849 C 332.414 239.965,329.741 239.193,326.590 238.134 L 320.860 236.209 315.961 223.040 C 313.266 215.797,311.154 209.777,311.267 209.664 C 311.807 209.124,319.027 205.426,319.542 205.425 C 319.865 205.425,322.966 213.123,326.434 222.532 M307.441 222.506 C 311.005 232.294,311.111 231.845,305.986 228.685 C 299.854 224.904,295.012 221.180,295.571 220.674 C 297.333 219.080,303.707 214.202,304.028 214.202 C 304.242 214.202,305.778 217.939,307.441 222.506 " stroke="none" fill="#000000" fill-rule="evenodd"></path></g></svg>